<?xml version="1.0" encoding="iso-8859-1"?>
<!-- Uploaded to: SVG Repo, www.svgrepo.com, Generator: SVG Repo Mixer Tools -->
<!DOCTYPE svg PUBLIC "-//W3C//DTD SVG 1.1//EN" "http://www.w3.org/Graphics/SVG/1.1/DTD/svg11.dtd">
<svg fill="#000000" height="800px" width="800px" version="1.1" id="Capa_1" xmlns="http://www.w3.org/2000/svg" xmlns:xlink="http://www.w3.org/1999/xlink" 
	 viewBox="0 0 457.378 457.378" xml:space="preserve">
<g id="XMLID_312_">
	<path id="XMLID_313_" d="M78.856,208.152c3.542-1.944,7.191-3.746,11.003-5.337c15.102-6.291,32.065-9.488,50.396-9.488
		c10.17,0,20.056,1.014,29.424,2.575l-56.048-37.98l91.612,46.942c6.522,2.214,12.181,4.422,16.745,6.343
		c0.016-0.044,0.038-0.105,0.06-0.166c-5.997-23.929-23.275-75.6-64.672-100.116c-20.312-12.024-43.581-15.808-64.83-15.808
		c-36.164,0-66.489,10.959-66.489,10.959S36.402,171.537,78.856,208.152z"/>
	<path id="XMLID_314_" d="M107.582,281.036l60.732-29.775c13.909-13.609,27.675-23.548,36.488-29.274
		c-16.236-5.886-39.708-12.37-64.554-12.37c-14.659,0-29.792,2.252-44.128,8.233c-58.871,24.523-82.477,102.309-82.477,102.309
		s41.088,21.745,86.575,21.745c7.019,0,14.148-0.556,21.243-1.756c0.344-3.641,0.75-7.288,1.448-10.959
		c4.871-25.649,18.194-47.5,33.208-64.981L107.582,281.036z"/>
	<path id="XMLID_315_" d="M197.97,357.403l15.492-121.606c-19.268,12.587-65.197,47.169-74.558,96.431
		c-11.904,62.653,40.084,125.15,40.084,125.15s69.109-38.02,82.499-99.082c-26.198-27.996-36.248-65.85-39.964-93.631
		L197.97,357.403z"/>
	<path id="XMLID_316_" d="M363.337,260.049c-2.117-1.914-4.427-3.475-6.666-5.187c-12.632,3.814-26.293,5.855-40.945,5.855
		c-15.403,0-29.995-2.2-42.898-5.052l58.474,60.019l-83.259-66.842c-4.682-1.568-8.879-3.07-12.085-4.347
		c1.411,25.694,8.624,77.148,43.011,108.397c30.571,27.772,75.082,32.667,102.661,32.667c15.005,0,24.995-1.45,24.995-1.45
		S410.529,302.924,363.337,260.049z"/>
	<path id="XMLID_317_" d="M351.492,171.612l-94.997,51.507c-4.21,3.258-7.851,5.809-10.688,7.686
		c14.45,5.426,40.954,13.631,69.92,13.631c16.536,0,33.776-2.703,49.81-10.171c57.812-26.917,78.198-105.618,78.198-105.618
		s-38.273-18.277-81.313-18.277c-16.221,0.008-33.096,2.665-48.873,9.803c-1.367,34.002-15.89,60.191-31.819,78.889L351.492,171.612
		z"/>
	<path id="XMLID_318_" d="M229.579,180.53l4.804-78.77l4.375,71.578c0,0,0.007-0.008,0.007-0.016l-0.24,7.859l-0.675,34.753
		C283.832,184.091,344.771,99.134,234.383,0c0,0-53.759,44.398-61.664,101.647C202.384,122.313,219.836,154.618,229.579,180.53z"/>
</g>
</svg>